<!--?xml version="1.0" standalone="no"?-->
              <svg id="sw-js-blob-svg" viewBox="0 0 100 100" xmlns="http://www.w3.org/2000/svg" version="1.1">
                    <defs> 
                        <linearGradient id="sw-gradient" x1="0" x2="1" y1="1" y2="0">
                            <stop id="stop1" stop-color="rgba(26, 56, 11, 1)" offset="0%"></stop>
                            <stop id="stop2" stop-color="rgba(139, 212, 105, 1)" offset="100%"></stop>
                        </linearGradient>
                    </defs>
                <path fill="url(#sw-gradient)" d="M15.2,-24.3C18.3,-21.5,18.7,-15.1,22.1,-9.6C25.4,-4,31.7,0.7,34.6,7.4C37.5,14.2,37,22.9,32.3,27.7C27.7,32.5,18.9,33.4,11.8,31.6C4.7,29.8,-0.7,25.3,-8.6,24.9C-16.4,24.5,-26.7,28.3,-28,25.1C-29.3,22,-21.6,12,-22.4,3.5C-23.2,-5,-32.3,-12,-34,-18.6C-35.8,-25.2,-30,-31.5,-23.1,-32.6C-16.2,-33.7,-8.1,-29.5,-1.1,-27.9C6,-26.2,12,-27.1,15.2,-24.3Z" width="100%" height="100%" transform="translate(50 50)" stroke-width="0" style="transition: all 0.3s ease 0s;" stroke="url(#sw-gradient)"></path>
              </svg>